HIERARCHY
ROOT hip
{
  OFFSET 0 90.174 2.4664
  CHANNELS 6 Xposition Yposition Zposition Zrotation Xrotation Yrotation
  JOINT abdomen
  {
    OFFSET 0 -1.186 -1.5018
    CHANNELS 6 Xposition Yposition Zposition Zrotation Xrotation Yrotation
    JOINT abdomen2
    {
      OFFSET 0 9.964 0.2134
      CHANNELS 6 Xposition Yposition Zposition Zrotation Xrotation Yrotation
      JOINT chest
      {
        OFFSET 0 13.134 -3.2573
        CHANNELS 6 Xposition Yposition Zposition Zrotation Xrotation Yrotation
        JOINT neck
        {
          OFFSET 0 20.686 -1.6905
          CHANNELS 6 Xposition Yposition Zposition Zrotation Xrotation Yrotation
          JOINT head
          {
            OFFSET 0 7.238 -0.1237
            CHANNELS 6 Xposition Yposition Zposition Zrotation Xrotation Yrotation
            End Site
            {
              OFFSET 0 0 0
            }
          }
        }
        JOINT lCollar
        {
          OFFSET 1.7069 20.075 5.0056
          CHANNELS 6 Xposition Yposition Zposition Zrotation Xrotation Yrotation
          JOINT lShldr
          {
            OFFSET 13.6458 -0.047 -4.849
            CHANNELS 6 Xposition Yposition Zposition Zrotation Xrotation Yrotation
            JOINT lForeArm
            {
              OFFSET 28.3255 -0.9759 2.2888
              CHANNELS 6 Xposition Yposition Zposition Zrotation Xrotation Yrotation
              JOINT lHand
              {
                OFFSET 22.1583 -0.53 10.8316
                CHANNELS 6 Xposition Yposition Zposition Zrotation Xrotation Yrotation
                JOINT lThumb1
                {
                  OFFSET 0.786 0.112 2.5817
                  CHANNELS 6 Xposition Yposition Zposition Zrotation Xrotation Yrotation
                  JOINT lThumb2
                  {
                    OFFSET 0.3601 -0.878 4.2331
                    CHANNELS 6 Xposition Yposition Zposition Zrotation Xrotation Yrotation
                    JOINT lThumb2_End
                    {
                      OFFSET 1.8127 -1.216 2.2227
                      CHANNELS 6 Xposition Yposition Zposition Zrotation Xrotation Yrotation
                      End Site
                      {
                        OFFSET 0.0181 -0.0122 0.0222
                      }
                    }
                  }
                }
                JOINT lCarpal1
                {
                  OFFSET 0.9571 1.114 1.7695
                  CHANNELS 6 Xposition Yposition Zposition Zrotation Xrotation Yrotation
                  JOINT lIndex1
                  {
                    OFFSET 4.1246 0.487 4.1451
                    CHANNELS 6 Xposition Yposition Zposition Zrotation Xrotation Yrotation
                    JOINT lIndex2
                    {
                      OFFSET 3.4052 -1.454 2.7682
                      CHANNELS 6 Xposition Yposition Zposition Zrotation Xrotation Yrotation
                      JOINT lIndex2_End
                      {
                        OFFSET 1.4531 -1.795 1.2713
                        CHANNELS 6 Xposition Yposition Zposition Zrotation Xrotation Yrotation
                        End Site
                        {
                          OFFSET 0.0145 -0.0179 0.0127
                        }
                      }
                    }
                  }
                  JOINT lMid1
                  {
                    OFFSET 5.6954 0.21 2.1184
                    CHANNELS 6 Xposition Yposition Zposition Zrotation Xrotation Yrotation
                    JOINT lMid2
                    {
                      OFFSET 3.9766 -1.54 2.3863
                      CHANNELS 6 Xposition Yposition Zposition Zrotation Xrotation Yrotation
                      JOINT lMid2_End
                      {
                        OFFSET 1.4042 -1.926 1.125
                        CHANNELS 6 Xposition Yposition Zposition Zrotation Xrotation Yrotation
                        End Site
                        {
                          OFFSET 0.014 -0.0193 0.0113
                        }
                      }
                    }
                  }
                }
                JOINT lCarpal2
                {
                  OFFSET 2.0956 0.66 -0.3894
                  CHANNELS 6 Xposition Yposition Zposition Zrotation Xrotation Yrotation
                  JOINT lRing1
                  {
                    OFFSET 5.0395 -0.09 2.4971
                    CHANNELS 6 Xposition Yposition Zposition Zrotation Xrotation Yrotation
                    JOINT lRing2
                    {
                      OFFSET 3.7921 -1.552 1.4806
                      CHANNELS 6 Xposition Yposition Zposition Zrotation Xrotation Yrotation
                      JOINT lRing2_End
                      {
                        OFFSET 1.4655 -1.808 0.9609
                        CHANNELS 6 Xposition Yposition Zposition Zrotation Xrotation Yrotation
                        End Site
                        {
                          OFFSET 0.0147 -0.0181 0.0096
                        }
                      }
                    }
                  }
                  JOINT lPinky1
                  {
                    OFFSET 4.9141 -1.269 0.3591
                    CHANNELS 6 Xposition Yposition Zposition Zrotation Xrotation Yrotation
                    JOINT lPinky2
                    {
                      OFFSET 3.1477 -1.685 0.8462
                      CHANNELS 6 Xposition Yposition Zposition Zrotation Xrotation Yrotation
                      JOINT lPinky2_End
                      {
                        OFFSET 0.8055 -1.585 0.7955
                        CHANNELS 6 Xposition Yposition Zposition Zrotation Xrotation Yrotation
                        End Site
                        {
                          OFFSET 0.0081 -0.0158 0.008
                        }
                      }
                    }
                  }
                }
              }
            }
          }
        }
        JOINT rCollar
        {
          OFFSET -1.7069 20.075 5.0056
          CHANNELS 6 Xposition Yposition Zposition Zrotation Xrotation Yrotation
          JOINT rShldr
          {
            OFFSET -13.6458 -0.047 -4.849
            CHANNELS 6 Xposition Yposition Zposition Zrotation Xrotation Yrotation
            JOINT rForeArm
            {
              OFFSET -28.3255 -0.9759 2.2888
              CHANNELS 6 Xposition Yposition Zposition Zrotation Xrotation Yrotation
              JOINT rHand
              {
                OFFSET -22.1583 -0.53 10.8316
                CHANNELS 6 Xposition Yposition Zposition Zrotation Xrotation Yrotation
                JOINT rThumb1
                {
                  OFFSET -0.786 0.112 2.5817
                  CHANNELS 6 Xposition Yposition Zposition Zrotation Xrotation Yrotation
                  JOINT rThumb2
                  {
                    OFFSET -0.3601 -0.878 4.2331
                    CHANNELS 6 Xposition Yposition Zposition Zrotation Xrotation Yrotation
                    JOINT rThumb2_End
                    {
                      OFFSET -1.8127 -1.216 2.2227
                      CHANNELS 6 Xposition Yposition Zposition Zrotation Xrotation Yrotation
                      End Site
                      {
                        OFFSET -0.0181 -0.0122 0.0222
                      }
                    }
                  }
                }
                JOINT rCarpal1
                {
                  OFFSET -0.9571 1.114 1.7695
                  CHANNELS 6 Xposition Yposition Zposition Zrotation Xrotation Yrotation
                  JOINT rIndex1
                  {
                    OFFSET -4.1246 0.487 4.1451
                    CHANNELS 6 Xposition Yposition Zposition Zrotation Xrotation Yrotation
                    JOINT rIndex2
                    {
                      OFFSET -3.4052 -1.454 2.7682
                      CHANNELS 6 Xposition Yposition Zposition Zrotation Xrotation Yrotation
                      JOINT rIndex2_End
                      {
                        OFFSET -1.4531 -1.795 1.2713
                        CHANNELS 6 Xposition Yposition Zposition Zrotation Xrotation Yrotation
                        End Site
                        {
                          OFFSET -0.0145 -0.018 0.0127
                        }
                      }
                    }
                  }
                  JOINT rMid1
                  {
                    OFFSET -5.6954 0.21 2.1184
                    CHANNELS 6 Xposition Yposition Zposition Zrotation Xrotation Yrotation
                    JOINT rMid2
                    {
                      OFFSET -3.9766 -1.54 2.3863
                      CHANNELS 6 Xposition Yposition Zposition Zrotation Xrotation Yrotation
                      JOINT rMid2_End
                      {
                        OFFSET -1.4042 -1.926 1.125
                        CHANNELS 6 Xposition Yposition Zposition Zrotation Xrotation Yrotation
                        End Site
                        {
                          OFFSET -0.014 -0.0193 0.0113
                        }
                      }
                    }
                  }
                }
                JOINT rCarpal2
                {
                  OFFSET -2.0956 0.66 -0.3894
                  CHANNELS 6 Xposition Yposition Zposition Zrotation Xrotation Yrotation
                  JOINT rRing1
                  {
                    OFFSET -5.0395 -0.09 2.4971
                    CHANNELS 6 Xposition Yposition Zposition Zrotation Xrotation Yrotation
                    JOINT rRing2
                    {
                      OFFSET -3.7921 -1.552 1.4806
                      CHANNELS 6 Xposition Yposition Zposition Zrotation Xrotation Yrotation
                      JOINT rRing2_End
                      {
                        OFFSET -1.4655 -1.808 0.9609
                        CHANNELS 6 Xposition Yposition Zposition Zrotation Xrotation Yrotation
                        End Site
                        {
                          OFFSET -0.0147 -0.0181 0.0096
                        }
                      }
                    }
                  }
                  JOINT rPinky1
                  {
                    OFFSET -4.9141 -1.269 0.3592
                    CHANNELS 6 Xposition Yposition Zposition Zrotation Xrotation Yrotation
                    JOINT rPinky2
                    {
                      OFFSET -3.1477 -1.685 0.8462
                      CHANNELS 6 Xposition Yposition Zposition Zrotation Xrotation Yrotation
                      JOINT rPinky2_End
                      {
                        OFFSET -0.8055 -1.585 0.7955
                        CHANNELS 6 Xposition Yposition Zposition Zrotation Xrotation Yrotation
                        End Site
                        {
                          OFFSET -0.0081 -0.0158 0.008
                        }
                      }
                    }
                  }
                }
              }
            }
          }
        }
      }
    }
  }
  JOINT lThigh
  {
    OFFSET 8.367 -8.2066 0.5982
    CHANNELS 6 Xposition Yposition Zposition Zrotation Xrotation Yrotation
    JOINT lShin
    {
      OFFSET 2.1923 -43.463 -0.4932
      CHANNELS 6 Xposition Yposition Zposition Zrotation Xrotation Yrotation
      JOINT lFoot
      {
        OFFSET 0.7333 -45.8593 -2.6451
        CHANNELS 6 Xposition Yposition Zposition Zrotation Xrotation Yrotation
        End Site
        {
          OFFSET 2.6618 -4.2699 12.3931
        }
      }
    }
  }
  JOINT rThigh
  {
    OFFSET -8.367 -8.2066 0.5982
    CHANNELS 6 Xposition Yposition Zposition Zrotation Xrotation Yrotation
    JOINT rShin
    {
      OFFSET -2.1923 -43.463 -0.4931
      CHANNELS 6 Xposition Yposition Zposition Zrotation Xrotation Yrotation
      JOINT rFoot
      {
        OFFSET -0.7333 -45.8593 -2.6451
        CHANNELS 6 Xposition Yposition Zposition Zrotation Xrotation Yrotation
        End Site
        {
          OFFSET -2.6618 -4.2699 12.3931
        }
      }
    }
  }
}
MOTION
Frames:	4
Frame Time:	0.0333333
-4.03457 40.2294 8.31939 0.0658831 33.0254 -178.22 0 -1.186 -1.5018 -1.35576 5.90952 -1.35634 0 9.964 0.2134 -2.59059 11.8481 -2.59181 8.88178e-016 13.134 -3.2573 -2.59059 11.8481 -2.59181 -4.44089e-016 20.686 -1.6905 -15.3848 -12.6647 -13.4527 -3.55271e-015 7.238 -0.1237 -14.6707 -15.0662 -14.0376 1.7069 20.075 5.0056 -19.93 -17.2302 -13.9273 13.6458 -0.047 -4.849 -11.3792 -21.1175 -23.3685 28.3255 -0.9759 2.2888 -26.8157 17.3696 -41.2245 22.1583 -0.53 10.8316 -47.87 -9.41197 22.3848 0.786 0.112 2.5817 1.05522e-006 -9.46305e-007 -9.47877e-007 0.3601 -0.878 4.2331 1.58284e-006 -1.41946e-006 -1.42182e-006 1.8127 -1.216 2.2227 1.05522e-006 -9.46305e-007 -9.47877e-007 0.9571 1.114 1.7695 -6.36111e-015 0 -0 4.1246 0.487 4.1451 1.05522e-006 -9.46305e-007 -9.47877e-007 3.4052 -1.454 2.7682 1.58284e-006 -1.41946e-006 -1.42182e-006 1.4531 -1.795 1.2713 1.05522e-006 -9.46305e-007 -9.47877e-007 5.6954 0.21 2.1184 1.05522e-006 -9.46305e-007 -9.47877e-007 3.9766 -1.54 2.3863 1.58284e-006 -1.41946e-006 -1.42182e-006 1.4042 -1.926 1.125 1.05522e-006 -9.46305e-007 -9.47877e-007 2.0956 0.66 -0.3894 -6.36111e-015 0 -0 5.0395 -0.09 2.4971 1.05522e-006 -9.46305e-007 -9.47877e-007 3.7921 -1.552 1.4806 1.58284e-006 -1.41946e-006 -1.42182e-006 1.4655 -1.808 0.9609 1.05522e-006 -9.46305e-007 -9.47877e-007 4.9141 -1.269 0.3591 1.05522e-006 -9.46305e-007 -9.47877e-007 3.1477 -1.685 0.8462 1.58284e-006 -1.41946e-006 -1.42182e-006 0.8055 -1.585 0.7955 1.05522e-006 -9.46305e-007 -9.47877e-007 -1.7069 20.075 5.0056 13.0409 -22.4143 7.78833 -13.6458 -0.047 -4.849 15.2587 -15.8984 42.0235 -28.3255 -0.9759 2.2888 21.2434 17.0954 59.0134 -22.1583 -0.53 10.8316 36.6096 -25.6245 4.74047 -0.786 0.112 2.5817 9.78115e-007 -3.1212e-006 -5.25381e-008 -0.3601 -0.878 4.2331 -2.33184e-006 2.29371e-006 6.58198e-007 -1.8127 -1.216 2.2227 9.78115e-007 -3.1212e-006 -5.25382e-008 -0.9571 1.114 1.7695 0 1.59028e-015 -0 -4.1246 0.487 4.1451 9.78115e-007 -3.1212e-006 -5.25381e-008 -3.4052 -1.454 2.7682 -2.33184e-006 2.29371e-006 6.58198e-007 -1.4531 -1.795 1.2713 9.78115e-007 -3.1212e-006 -5.25382e-008 -5.6954 0.21 2.1184 9.78115e-007 -3.1212e-006 -5.25381e-008 -3.9766 -1.54 2.3863 -2.33184e-006 2.29371e-006 6.58198e-007 -1.4042 -1.926 1.125 9.78115e-007 -3.1212e-006 -5.25382e-008 -2.0956 0.66 -0.3894 0 1.59028e-015 -0 -5.0395 -0.09 2.4971 9.78115e-007 -3.1212e-006 -5.25381e-008 -3.7921 -1.552 1.4806 -2.33184e-006 2.29371e-006 6.58198e-007 -1.4655 -1.808 0.9609 9.78115e-007 -3.1212e-006 -5.25382e-008 -4.9141 -1.269 0.3592 9.78115e-007 -3.1212e-006 -5.25381e-008 -3.1477 -1.685 0.8462 -2.33184e-006 2.29371e-006 6.58198e-007 -0.8055 -1.585 0.7955 9.78115e-007 -3.1212e-006 -5.25382e-008 8.367 -8.2066 0.5982 111.578 -47.705 82.5428 2.1923 -43.463 -0.4932 175.411 64.2502 139.825 0.7333 -45.8593 -2.6451 1.41126 38.8507 33.8969 -8.367 -8.2066 0.5982 -8.96735 28.5102 -1.52592 -2.1923 -43.463 -0.4931 108.655 86.5768 -70.0505 -0.7333 -45.8593 -2.6451 13.1594 55.778 -49.7688 
-4.03448 40.3182 8.22127 0.0652301 32.5493 -178.221 4.44089e-016 -1.186 -1.5018 -1.37284 5.66097 -1.3522 0 9.964 0.2134 -2.62979 11.3515 -2.58611 2.22045e-016 13.134 -3.2573 -2.62979 11.3515 -2.58611 1.77636e-015 20.686 -1.6905 -15.3876 -12.7107 -13.4657 0 7.238 -0.1237 -14.7155 -15.2464 -13.93 1.7069 20.075 5.0056 -20.1942 -16.688 -13.4124 13.6458 -0.047 -4.849 -11.3792 -21.1175 -23.3685 28.3255 -0.9759 2.2888 -27.034 17.7277 -41.8905 22.1583 -0.53 10.8316 -47.5912 -9.63235 23.0187 0.786 0.112 2.5817 -2.20363e-006 -5.64054e-006 -1.7825e-006 0.3601 -0.878 4.2331 6.52209e-006 4.80632e-006 5.52928e-006 1.8127 -1.216 2.2227 -2.73121e-006 -5.16724e-006 -1.30864e-006 0.9571 1.114 1.7695 -9.54166e-015 6.36111e-015 -0 4.1246 0.487 4.1451 -2.20363e-006 -5.64054e-006 -1.7825e-006 3.4052 -1.454 2.7682 6.52209e-006 4.80632e-006 5.52928e-006 1.4531 -1.795 1.2713 -2.73121e-006 -5.16724e-006 -1.30864e-006 5.6954 0.21 2.1184 -2.20363e-006 -5.64054e-006 -1.7825e-006 3.9766 -1.54 2.3863 6.52209e-006 4.80632e-006 5.52928e-006 1.4042 -1.926 1.125 -2.73121e-006 -5.16724e-006 -1.30864e-006 2.0956 0.66 -0.3894 -9.54166e-015 6.36111e-015 -0 5.0395 -0.09 2.4971 -2.20363e-006 -5.64054e-006 -1.7825e-006 3.7921 -1.552 1.4806 6.52209e-006 4.80632e-006 5.52928e-006 1.4655 -1.808 0.9609 -2.73121e-006 -5.16724e-006 -1.30864e-006 4.9141 -1.269 0.3591 -2.20363e-006 -5.64054e-006 -1.7825e-006 3.1477 -1.685 0.8462 6.52209e-006 4.80632e-006 5.52928e-006 0.8055 -1.585 0.7955 -2.73121e-006 -5.16724e-006 -1.30864e-006 -1.7069 20.075 5.0056 13.2287 -21.6489 7.43593 -13.6458 -0.047 -4.849 15.2587 -15.8984 42.0235 -28.3255 -0.9759 2.2888 21.2827 17.22 59.3045 -22.1583 -0.53 10.8316 36.4894 -25.532 4.52035 -0.786 0.112 2.5817 1.35393e-006 8.27514e-007 -6.05047e-007 -0.3601 -0.878 4.2331 -3.18055e-015 4.77083e-015 3.18055e-015 -1.8127 -1.216 2.2227 1.35393e-006 8.27514e-007 -6.05047e-007 -0.9571 1.114 1.7695 3.18055e-015 -1.59028e-015 1.59028e-015 -4.1246 0.487 4.1451 1.35393e-006 8.27514e-007 -6.05047e-007 -3.4052 -1.454 2.7682 -3.18055e-015 0 3.18055e-015 -1.4531 -1.795 1.2713 1.35393e-006 8.27514e-007 -6.05047e-007 -5.6954 0.21 2.1184 1.35393e-006 8.27514e-007 -6.05047e-007 -3.9766 -1.54 2.3863 -3.18055e-015 0 3.18055e-015 -1.4042 -1.926 1.125 1.35393e-006 8.27514e-007 -6.05047e-007 -2.0956 0.66 -0.3894 3.18055e-015 -1.59028e-015 1.59028e-015 -5.0395 -0.09 2.4971 1.35393e-006 8.27514e-007 -6.05047e-007 -3.7921 -1.552 1.4806 -3.18055e-015 0 3.18055e-015 -1.4655 -1.808 0.9609 1.35393e-006 8.27514e-007 -6.05047e-007 -4.9141 -1.269 0.3592 1.35393e-006 8.27514e-007 -6.05047e-007 -3.1477 -1.685 0.8462 -3.18055e-015 0 3.18055e-015 -0.8055 -1.585 0.7955 1.35393e-006 8.27514e-007 -6.05047e-007 8.367 -8.2066 0.5982 111.809 -47.832 82.7755 2.1923 -43.463 -0.4932 175.413 64.2469 139.811 0.7333 -45.8593 -2.6451 2.22316 37.7619 33.2858 -8.367 -8.2066 0.5982 -8.89115 28.0943 -1.59944 -2.1923 -43.463 -0.4931 108.609 86.5777 -70.0015 -0.7333 -45.8593 -2.6451 13.1646 55.7791 -49.7705 
-4.03441 40.4067 8.12316 0.064567 32.0734 -178.223 -4.44089e-016 -1.186 -1.5018 -1.38975 5.41262 -1.34804 0 9.964 0.2134 -2.66863 10.8551 -2.58062 3.33067e-016 13.134 -3.2573 -2.66863 10.8551 -2.58062 8.88178e-016 20.686 -1.6905 -15.3905 -12.7568 -13.4787 -3.55271e-015 7.238 -0.1237 -14.7599 -15.4266 -13.8224 1.7069 20.075 5.0056 -20.4626 -16.1482 -12.8963 13.6458 -0.047 -4.849 -11.3792 -21.1175 -23.3685 28.3255 -0.9759 2.2888 -27.2483 18.0881 -42.5563 22.1583 -0.53 10.8316 -47.3097 -9.84964 23.654 0.786 0.112 2.5817 -5.27578e-007 4.73426e-007 4.73764e-007 0.3601 -0.878 4.2331 -1.58273e-006 1.42028e-006 1.42129e-006 1.8127 -1.216 2.2227 2.73225e-006 5.16748e-006 1.3058e-006 0.9571 1.114 1.7695 -3.18055e-015 4.77083e-015 -3.18055e-015 4.1246 0.487 4.1451 -5.27578e-007 4.73426e-007 4.73764e-007 3.4052 -1.454 2.7682 -1.58273e-006 1.42028e-006 1.42129e-006 1.4531 -1.795 1.2713 2.73225e-006 5.16748e-006 1.3058e-006 5.6954 0.21 2.1184 -5.27578e-007 4.73426e-007 4.73764e-007 3.9766 -1.54 2.3863 -1.58273e-006 1.42028e-006 1.42129e-006 1.4042 -1.926 1.125 2.73225e-006 5.16748e-006 1.3058e-006 2.0956 0.66 -0.3894 -3.18055e-015 4.77083e-015 -3.18055e-015 5.0395 -0.09 2.4971 -5.27578e-007 4.73426e-007 4.73764e-007 3.7921 -1.552 1.4806 -1.58273e-006 1.42028e-006 1.42129e-006 1.4655 -1.808 0.9609 2.73225e-006 5.16748e-006 1.3058e-006 4.9141 -1.269 0.3591 -5.27578e-007 4.73426e-007 4.73764e-007 3.1477 -1.685 0.8462 -1.58273e-006 1.42028e-006 1.42129e-006 0.8055 -1.585 0.7955 2.73225e-006 5.16748e-006 1.3058e-006 -1.7069 20.075 5.0056 13.4204 -20.8847 7.08273 -13.6458 -0.047 -4.849 15.2587 -15.8984 42.0235 -28.3255 -0.9759 2.2888 21.3214 17.3447 59.5956 -22.1583 -0.53 10.8316 36.3696 -25.439 4.30065 -0.786 0.112 2.5817 -1.84876e-006 1.94749e-006 1.20599e-006 -0.3601 -0.878 4.2331 1.50967e-006 -3.89295e-006 2.95563e-006 -1.8127 -1.216 2.2227 -6.28521e-007 -8.3751e-007 2.76617e-006 -0.9571 1.114 1.7695 6.36111e-015 -3.18055e-015 -3.18055e-015 -4.1246 0.487 4.1451 -1.84876e-006 1.94749e-006 1.20599e-006 -3.4052 -1.454 2.7682 1.50967e-006 -3.89295e-006 2.95563e-006 -1.4531 -1.795 1.2713 -6.28521e-007 -8.3751e-007 2.76617e-006 -5.6954 0.21 2.1184 -1.84876e-006 1.94749e-006 1.20599e-006 -3.9766 -1.54 2.3863 1.50967e-006 -3.89295e-006 2.95563e-006 -1.4042 -1.926 1.125 -6.28521e-007 -8.3751e-007 2.76617e-006 -2.0956 0.66 -0.3894 6.36111e-015 -3.18055e-015 -3.18055e-015 -5.0395 -0.09 2.4971 -1.84876e-006 1.94749e-006 1.20599e-006 -3.7921 -1.552 1.4806 1.50967e-006 -3.89295e-006 2.95563e-006 -1.4655 -1.808 0.9609 -6.28521e-007 -8.3751e-007 2.76617e-006 -4.9141 -1.269 0.3592 -1.84876e-006 1.94749e-006 1.20599e-006 -3.1477 -1.685 0.8462 1.50967e-006 -3.89295e-006 2.95563e-006 -0.8055 -1.585 0.7955 -6.28521e-007 -8.3751e-007 2.76617e-006 8.367 -8.2066 0.5982 112.041 -47.9586 83.0096 2.1923 -43.463 -0.4932 175.415 64.2435 139.797 0.7333 -45.8593 -2.6451 3.00921 36.6673 32.7027 -8.367 -8.2066 0.5982 -8.81587 27.6782 -1.67203 -2.1923 -43.463 -0.4931 108.561 86.5786 -69.9518 -0.7333 -45.8593 -2.6451 13.1699 55.7803 -49.7724 
-4.03434 40.4949 8.02505 0.063896 31.5975 -178.224 -4.44089e-016 -1.186 -1.5018 -1.4065 5.16444 -1.34387 0 9.964 0.2134 -2.70711 10.3591 -2.57533 -8.88178e-016 13.134 -3.2573 -2.70711 10.3591 -2.57533 0 20.686 -1.6905 -15.3934 -12.803 -13.4917 -3.55271e-015 7.238 -0.1237 -14.8041 -15.6071 -13.7149 1.7069 20.075 5.0056 -20.7353 -15.6109 -12.3792 13.6458 -0.047 -4.849 -11.3792 -21.1175 -23.3685 28.3255 -0.9759 2.2888 -27.4586 18.4507 -43.2219 22.1583 -0.53 10.8316 -47.0258 -10.0638 24.2907 0.786 0.112 2.5817 2.73312e-006 5.16792e-006 1.3028e-006 0.3601 -0.878 4.2331 -1.58281e-006 1.42062e-006 1.42096e-006 1.8127 -1.216 2.2227 -1.05521e-006 9.47082e-007 9.47307e-007 0.9571 1.114 1.7695 -6.36111e-015 1.59028e-015 1.59028e-015 4.1246 0.487 4.1451 2.73312e-006 5.16792e-006 1.3028e-006 3.4052 -1.454 2.7682 -1.58281e-006 1.42062e-006 1.42096e-006 1.4531 -1.795 1.2713 -1.05521e-006 9.47082e-007 9.47307e-007 5.6954 0.21 2.1184 2.73312e-006 5.16792e-006 1.3028e-006 3.9766 -1.54 2.3863 -1.58281e-006 1.42062e-006 1.42096e-006 1.4042 -1.926 1.125 -1.05521e-006 9.47082e-007 9.47307e-007 2.0956 0.66 -0.3894 -6.36111e-015 1.59028e-015 1.59028e-015 5.0395 -0.09 2.4971 2.73312e-006 5.16792e-006 1.3028e-006 3.7921 -1.552 1.4806 -1.58281e-006 1.42062e-006 1.42096e-006 1.4655 -1.808 0.9609 -1.05521e-006 9.47082e-007 9.47307e-007 4.9141 -1.269 0.3591 2.73312e-006 5.16792e-006 1.3028e-006 3.1477 -1.685 0.8462 -1.58281e-006 1.42062e-006 1.42096e-006 0.8055 -1.585 0.7955 -1.05521e-006 9.47082e-007 9.47307e-007 -1.7069 20.075 5.0056 13.6161 -20.122 6.72869 -13.6458 -0.047 -4.849 15.2587 -15.8984 42.0235 -28.3255 -0.9759 2.2888 21.3594 17.4696 59.8869 -22.1583 -0.53 10.8316 36.2504 -25.3457 4.08129 -0.786 0.112 2.5817 1.32908e-006 6.70532e-006 4.38171e-006 -0.3601 -0.878 4.2331 -1.35443e-006 -8.27352e-007 6.03872e-007 -1.8127 -1.216 2.2227 2.22413e-006 -1.4788e-006 6.26409e-006 -0.9571 1.114 1.7695 6.36111e-015 3.18055e-015 1.59028e-015 -4.1246 0.487 4.1451 1.32908e-006 6.70532e-006 4.38171e-006 -3.4052 -1.454 2.7682 -1.35443e-006 -8.27352e-007 6.03872e-007 -1.4531 -1.795 1.2713 2.22413e-006 -1.4788e-006 6.26409e-006 -5.6954 0.21 2.1184 1.32908e-006 6.70532e-006 4.38171e-006 -3.9766 -1.54 2.3863 -1.35443e-006 -8.27352e-007 6.03872e-007 -1.4042 -1.926 1.125 2.22413e-006 -1.4788e-006 6.26409e-006 -2.0956 0.66 -0.3894 6.36111e-015 3.18055e-015 1.59028e-015 -5.0395 -0.09 2.4971 1.32908e-006 6.70532e-006 4.38171e-006 -3.7921 -1.552 1.4806 -1.35443e-006 -8.27352e-007 6.03872e-007 -1.4655 -1.808 0.9609 2.22413e-006 -1.4788e-006 6.26409e-006 -4.9141 -1.269 0.3592 1.32908e-006 6.70532e-006 4.38171e-006 -3.1477 -1.685 0.8462 -1.35443e-006 -8.27352e-007 6.03872e-007 -0.8055 -1.585 0.7955 2.22413e-006 -1.4788e-006 6.26409e-006 8.367 -8.2066 0.5982 112.275 -48.0845 83.245 2.1923 -43.463 -0.4932 175.417 64.2398 139.783 0.7333 -45.8593 -2.6451 3.77079 35.5676 32.1461 -8.367 -8.2066 0.5982 -8.74152 27.2621 -1.74368 -2.1923 -43.463 -0.4931 108.516 86.5795 -69.9043 -0.7333 -45.8593 -2.6451 13.1752 55.7814 -49.7741 
